<svg width="113" height="113" viewBox="0 0 113 113" fill="none" xmlns="http://www.w3.org/2000/svg">
<g filter="url(#filter0_d)">
<circle cx="56.5" cy="46.4424" r="36" fill="#E3B873"/>
</g>
<path d="M64.8538 46.8008C62.9911 45.4927 60.5789 44.6939 58.3658 44.0642V34.7897C60.1168 35.0116 61.6022 35.5314 62.6516 36.1804C63.7155 36.8384 64.3184 37.6203 64.3184 38.3501C64.3184 39.3898 65.1532 40.2334 66.1842 40.2334C67.2151 40.2334 68.05 39.3898 68.05 38.3501C68.05 36.456 67.0068 34.7521 65.2715 33.4556C63.5456 32.1662 61.1323 31.2769 58.3658 30.9988V30.8334C58.3658 29.7936 57.531 28.95 56.5 28.95C55.469 28.95 54.6342 29.7936 54.6342 30.8334V30.9988C51.8677 31.2769 49.4544 32.1662 47.7285 33.4556C45.9932 34.7521 44.95 36.456 44.95 38.3501C44.95 41.0468 46.2709 42.8821 48.1462 44.1991C50.0088 45.5072 52.421 46.3061 54.6342 46.9358V56.2103C52.8832 55.9884 51.3978 55.4686 50.3484 54.8196C49.2845 54.1616 48.6816 53.3797 48.6816 52.6499C48.6816 51.6102 47.8468 50.7666 46.8158 50.7666C45.7849 50.7666 44.95 51.6102 44.95 52.6499C44.95 54.544 45.9932 56.2479 47.7285 57.5444C49.4544 58.8338 51.8677 59.7231 54.6342 60.0012V60.1666C54.6342 61.2064 55.469 62.05 56.5 62.05C57.531 62.05 58.3658 61.2064 58.3658 60.1666V60.0012C61.1323 59.7231 63.5456 58.8338 65.2715 57.5444C67.0068 56.2479 68.05 54.544 68.05 52.6499C68.05 49.9531 66.7291 48.1178 64.8538 46.8008ZM54.6342 34.7897V42.9912C52.435 42.2908 50.9492 41.623 50.0117 40.8865C49.0684 40.1454 48.6816 39.3361 48.6816 38.3501C48.6816 37.6203 49.2845 36.8384 50.3484 36.1804C51.3978 35.5314 52.8832 35.0116 54.6342 34.7897ZM62.6515 54.8198C61.6021 55.4688 60.1167 55.9886 58.3658 56.2106V48.0091C60.565 48.7093 62.0508 49.3772 62.9883 50.1137C63.9316 50.8548 64.3184 51.6642 64.3184 52.6502C64.3184 53.3799 63.7155 54.1619 62.6515 54.8198Z" fill="white" stroke="white" stroke-width="0.1"/>
<defs>
<filter id="filter0_d" x="0.5" y="0.442383" width="112" height="112" filterUnits="userSpaceOnUse" color-interpolation-filters="sRGB">
<feFlood flood-opacity="0" result="BackgroundImageFix"/>
<feColorMatrix in="SourceAlpha" type="matrix" values="0 0 0 0 0 0 0 0 0 0 0 0 0 0 0 0 0 0 127 0"/>
<feOffset dy="10"/>
<feGaussianBlur stdDeviation="10"/>
<feColorMatrix type="matrix" values="0 0 0 0 0.929412 0 0 0 0 0.752941 0 0 0 0 0.470588 0 0 0 0.2 0"/>
<feBlend mode="normal" in2="BackgroundImageFix" result="effect1_dropShadow"/>
<feBlend mode="normal" in="SourceGraphic" in2="effect1_dropShadow" result="shape"/>
</filter>
</defs>
</svg>
